<?xml version="1.0" encoding="UTF-8"?>
<svg width="1280" height="864" viewBox="0 0 1280 864" xmlns="http://www.w3.org/2000/svg">
  <defs>
    <linearGradient id="bgGrad" x1="0%" y1="0%" x2="0%" y2="100%">
      <stop offset="0%" style="stop-color:#0c0c16;stop-opacity:1" />
      <stop offset="100%" style="stop-color:#080810;stop-opacity:1" />
    </linearGradient>
    <radialGradient id="glow1" cx="50%" cy="95%" r="45%">
      <stop offset="0%" style="stop-color:#1a2a3a;stop-opacity:0.2" />
      <stop offset="100%" style="stop-color:#0c0c16;stop-opacity:0" />
    </radialGradient>
  </defs>
  
  <rect width="1280" height="864" fill="url(#bgGrad)"/>
  <ellipse cx="640" cy="820" rx="450" ry="180" fill="url(#glow1)"/>
  
  <!-- Subtle scanlines -->
  <g opacity="0.03">
    <line x1="0" y1="0" x2="1280" y2="0" stroke="#000" stroke-width="1"/>
    <line x1="0" y1="72" x2="1280" y2="72" stroke="#000" stroke-width="1"/>
    <line x1="0" y1="144" x2="1280" y2="144" stroke="#000" stroke-width="1"/>
    <line x1="0" y1="216" x2="1280" y2="216" stroke="#000" stroke-width="1"/>
    <line x1="0" y1="288" x2="1280" y2="288" stroke="#000" stroke-width="1"/>
    <line x1="0" y1="360" x2="1280" y2="360" stroke="#000" stroke-width="1"/>
    <line x1="0" y1="432" x2="1280" y2="432" stroke="#000" stroke-width="1"/>
    <line x1="0" y1="504" x2="1280" y2="504" stroke="#000" stroke-width="1"/>
    <line x1="0" y1="576" x2="1280" y2="576" stroke="#000" stroke-width="1"/>
    <line x1="0" y1="648" x2="1280" y2="648" stroke="#000" stroke-width="1"/>
    <line x1="0" y1="720" x2="1280" y2="720" stroke="#000" stroke-width="1"/>
    <line x1="0" y1="792" x2="1280" y2="792" stroke="#000" stroke-width="1"/>
  </g>
  
  <!-- Key indicator decorations (corner dots) -->
  <g fill="#3a4a5a" opacity="0.25">
    <circle cx="60" cy="60" r="4"/>
    <circle cx="1220" cy="60" r="4"/>
    <circle cx="60" cy="804" r="4"/>
    <circle cx="1220" cy="804" r="4"/>
  </g>
  
  <!-- Subtle tech lines -->
  <g stroke="#2a3a4a" stroke-width="1" opacity="0.1">
    <line x1="80" y1="300" x2="200" y2="300"/>
    <line x1="1080" y1="450" x2="1200" y2="450"/>
    <line x1="60" y1="600" x2="180" y2="600"/>
  </g>
  
  <!-- Minimal bottom -->
  <g fill="#1a1a2a" opacity="0.35">
    <rect x="0" y="825" width="1280" height="39"/>
  </g>
  
  <!-- Vignette -->
  <rect width="1280" height="35" fill="#000" opacity="0.4"/>
  <rect y="829" width="1280" height="35" fill="#000" opacity="0.4"/>
  <rect width="35" height="864" fill="#000" opacity="0.4"/>
  <rect x="1245" width="35" height="864" fill="#000" opacity="0.4"/>
</svg>
