<?xml version="1.0" encoding="UTF-8"?>
<svg width="1280" height="864" viewBox="0 0 1280 864" xmlns="http://www.w3.org/2000/svg">
  <defs>
    <linearGradient id="bgGrad" x1="0%" y1="0%" x2="0%" y2="100%">
      <stop offset="0%" style="stop-color:#0c0c16;stop-opacity:1" />
      <stop offset="100%" style="stop-color:#080810;stop-opacity:1" />
    </linearGradient>
    <radialGradient id="glow1" cx="8%" cy="12%" r="45%">
      <stop offset="0%" style="stop-color:#1a3a5a;stop-opacity:0.25" />
      <stop offset="100%" style="stop-color:#0c0c16;stop-opacity:0" />
    </radialGradient>
    <radialGradient id="glow2" cx="92%" cy="75%" r="35%">
      <stop offset="0%" style="stop-color:#1a2a4a;stop-opacity:0.2" />
      <stop offset="100%" style="stop-color:#0c0c16;stop-opacity:0" />
    </radialGradient>
  </defs>
  
  <rect width="1280" height="864" fill="url(#bgGrad)"/>
  <ellipse cx="100" cy="105" rx="280" ry="180" fill="url(#glow1)"/>
  <ellipse cx="1180" cy="650" rx="300" ry="200" fill="url(#glow2)"/>
  
  <!-- Scanlines -->
  <g opacity="0.035">
    <line x1="0" y1="0" x2="1280" y2="0" stroke="#000" stroke-width="1"/>
    <line x1="0" y1="54" x2="1280" y2="54" stroke="#000" stroke-width="1"/>
    <line x1="0" y1="108" x2="1280" y2="108" stroke="#000" stroke-width="1"/>
    <line x1="0" y1="162" x2="1280" y2="162" stroke="#000" stroke-width="1"/>
    <line x1="0" y1="216" x2="1280" y2="216" stroke="#000" stroke-width="1"/>
    <line x1="0" y1="270" x2="1280" y2="270" stroke="#000" stroke-width="1"/>
    <line x1="0" y1="324" x2="1280" y2="324" stroke="#000" stroke-width="1"/>
    <line x1="0" y1="378" x2="1280" y2="378" stroke="#000" stroke-width="1"/>
    <line x1="0" y1="432" x2="1280" y2="432" stroke="#000" stroke-width="1"/>
    <line x1="0" y1="486" x2="1280" y2="486" stroke="#000" stroke-width="1"/>
    <line x1="0" y1="540" x2="1280" y2="540" stroke="#000" stroke-width="1"/>
    <line x1="0" y1="594" x2="1280" y2="594" stroke="#000" stroke-width="1"/>
    <line x1="0" y1="648" x2="1280" y2="648" stroke="#000" stroke-width="1"/>
    <line x1="0" y1="702" x2="1280" y2="702" stroke="#000" stroke-width="1"/>
    <line x1="0" y1="756" x2="1280" y2="756" stroke="#000" stroke-width="1"/>
    <line x1="0" y1="810" x2="1280" y2="810" stroke="#000" stroke-width="1"/>
  </g>
  
  <!-- Data lines (HUD style) -->
  <g stroke="#2a4a5a" stroke-width="1" opacity="0.15">
    <line x1="0" y1="216" x2="1280" y2="216"/>
    <line x1="0" y1="432" x2="1280" y2="432"/>
    <line x1="0" y1="648" x2="1280" y2="648"/>
  </g>
  
  <!-- Corner brackets (tech feel) -->
  <g stroke="#3a5a6a" stroke-width="2" opacity="0.35" fill="none">
    <path d="M 30 50 L 30 30 L 50 30"/>
    <path d="M 1250 50 L 1250 30 L 1230 30"/>
    <path d="M 30 814 L 30 834 L 50 834"/>
    <path d="M 1250 814 L 1250 834 L 1230 834"/>
  </g>
  
  <!-- Minimal buildings -->
  <g fill="#1a1a2a" opacity="0.5">
    <rect x="0" y="800" width="120" height="64"/>
    <rect x="110" y="780" width="80" height="84"/>
    <rect x="180" y="795" width="100" height="69"/>
    <rect x="270" y="770" width="60" height="94"/>
    <rect x="320" y="790" width="90" height="74"/>
    <rect x="400" y="775" width="70" height="89"/>
    <rect x="460" y="800" width="80" height="64"/>
    <rect x="530" y="785" width="90" height="79"/>
    <rect x="610" y="795" width="100" height="69"/>
    <rect x="700" y="770" width="60" height="94"/>
    <rect x="750" y="790" width="80" height="74"/>
    <rect x="820" y="780" width="70" height="84"/>
    <rect x="880" y="800" width="90" height="64"/>
    <rect x="960" y="775" width="60" height="89"/>
    <rect x="1010" y="795" width="80" height="69"/>
    <rect x="1080" y="785" width="90" height="79"/>
    <rect x="1160" y="800" width="120" height="64"/>
  </g>
  
  <!-- Vignette -->
  <rect width="1280" height="50" fill="#000" opacity="0.35"/>
  <rect y="814" width="1280" height="50" fill="#000" opacity="0.35"/>
  <rect width="50" height="864" fill="#000" opacity="0.35"/>
  <rect x="1230" width="50" height="864" fill="#000" opacity="0.35"/>
</svg>
